<mxfile host="app.diagrams.net" agent="Mozilla/5.0 (Macintosh; Intel Mac OS X 10_15_7) AppleWebKit/537.36 (KHTML, like Gecko) Chrome/128.0.0.0 Safari/537.36" version="24.8.4">
  <diagram name="Page-1" id="guLsJqvJWBZUYRRwc0MN">
    <mxGraphModel dx="1963" dy="1064" grid="1" gridSize="10" guides="1" tooltips="1" connect="1" arrows="1" fold="1" page="1" pageScale="1" pageWidth="827" pageHeight="1169" math="0" shadow="0">
      <root>
        <mxCell id="0" />
        <mxCell id="1" parent="0" />
        <mxCell id="j533js6PK0OlSNogMI2J-1" value="" style="endArrow=none;html=1;rounded=0;fontSize=12;startSize=8;endSize=8;curved=1;strokeWidth=3;opacity=30;" edge="1" parent="1" source="j533js6PK0OlSNogMI2J-49">
          <mxGeometry width="50" height="50" relative="1" as="geometry">
            <mxPoint x="112" y="240" as="sourcePoint" />
            <mxPoint x="796" y="240" as="targetPoint" />
          </mxGeometry>
        </mxCell>
        <mxCell id="j533js6PK0OlSNogMI2J-2" value="hotfix分支" style="text;html=1;align=center;verticalAlign=middle;resizable=0;points=[];autosize=1;strokeColor=none;fillColor=none;fontSize=16;" vertex="1" parent="1">
          <mxGeometry x="72" y="226" width="90" height="30" as="geometry" />
        </mxCell>
        <mxCell id="j533js6PK0OlSNogMI2J-3" value="" style="endArrow=none;html=1;rounded=0;fontSize=12;startSize=8;endSize=8;curved=1;strokeWidth=3;" edge="1" parent="1" source="j533js6PK0OlSNogMI2J-54">
          <mxGeometry width="50" height="50" relative="1" as="geometry">
            <mxPoint x="112" y="360" as="sourcePoint" />
            <mxPoint x="786" y="360" as="targetPoint" />
          </mxGeometry>
        </mxCell>
        <mxCell id="j533js6PK0OlSNogMI2J-4" value="test分支" style="text;html=1;align=center;verticalAlign=middle;resizable=0;points=[];autosize=1;strokeColor=none;fillColor=none;fontSize=16;" vertex="1" parent="1">
          <mxGeometry x="76" y="346" width="80" height="30" as="geometry" />
        </mxCell>
        <mxCell id="j533js6PK0OlSNogMI2J-5" value="" style="endArrow=none;html=1;rounded=0;fontSize=12;startSize=8;endSize=8;curved=1;strokeWidth=3;" edge="1" parent="1" source="j533js6PK0OlSNogMI2J-37">
          <mxGeometry width="50" height="50" relative="1" as="geometry">
            <mxPoint x="156" y="479" as="sourcePoint" />
            <mxPoint x="776" y="480" as="targetPoint" />
          </mxGeometry>
        </mxCell>
        <mxCell id="j533js6PK0OlSNogMI2J-6" value="feature分支&lt;br&gt;bugfix分支" style="text;html=1;align=center;verticalAlign=middle;resizable=0;points=[];autosize=1;strokeColor=none;fillColor=none;fontSize=16;" vertex="1" parent="1">
          <mxGeometry x="56" y="455" width="110" height="50" as="geometry" />
        </mxCell>
        <mxCell id="j533js6PK0OlSNogMI2J-7" value="" style="endArrow=none;dashed=1;html=1;dashPattern=1 3;strokeWidth=2;rounded=0;fontSize=12;startSize=8;endSize=8;curved=1;" edge="1" parent="1">
          <mxGeometry width="50" height="50" relative="1" as="geometry">
            <mxPoint x="196" y="540" as="sourcePoint" />
            <mxPoint x="196" y="40" as="targetPoint" />
          </mxGeometry>
        </mxCell>
        <mxCell id="j533js6PK0OlSNogMI2J-8" value="" style="endArrow=classic;html=1;rounded=0;fontSize=12;startSize=8;endSize=8;curved=1;exitX=0.5;exitY=0;exitDx=0;exitDy=0;entryX=0.5;entryY=1;entryDx=0;entryDy=0;" edge="1" parent="1" source="j533js6PK0OlSNogMI2J-15" target="j533js6PK0OlSNogMI2J-35">
          <mxGeometry width="50" height="50" relative="1" as="geometry">
            <mxPoint x="226" y="455" as="sourcePoint" />
            <mxPoint x="256" y="360" as="targetPoint" />
          </mxGeometry>
        </mxCell>
        <mxCell id="j533js6PK0OlSNogMI2J-12" value="" style="endArrow=none;html=1;rounded=0;fontSize=12;startSize=8;endSize=8;curved=1;strokeWidth=3;" edge="1" parent="1" source="j533js6PK0OlSNogMI2J-56">
          <mxGeometry width="50" height="50" relative="1" as="geometry">
            <mxPoint x="112" y="121.5" as="sourcePoint" />
            <mxPoint x="776" y="122" as="targetPoint" />
          </mxGeometry>
        </mxCell>
        <mxCell id="j533js6PK0OlSNogMI2J-13" value="master分支" style="text;html=1;align=center;verticalAlign=middle;resizable=0;points=[];autosize=1;strokeColor=none;fillColor=none;fontSize=16;" vertex="1" parent="1">
          <mxGeometry x="62" y="107" width="100" height="30" as="geometry" />
        </mxCell>
        <mxCell id="j533js6PK0OlSNogMI2J-18" value="" style="endArrow=none;html=1;rounded=0;fontSize=12;startSize=8;endSize=8;curved=1;strokeWidth=3;" edge="1" parent="1" target="j533js6PK0OlSNogMI2J-15">
          <mxGeometry width="50" height="50" relative="1" as="geometry">
            <mxPoint x="156" y="479" as="sourcePoint" />
            <mxPoint x="836" y="479" as="targetPoint" />
          </mxGeometry>
        </mxCell>
        <mxCell id="j533js6PK0OlSNogMI2J-15" value="" style="ellipse;whiteSpace=wrap;html=1;aspect=fixed;fillColor=#008a00;strokeColor=#005700;fontColor=#ffffff;" vertex="1" parent="1">
          <mxGeometry x="206" y="470" width="20" height="20" as="geometry" />
        </mxCell>
        <mxCell id="j533js6PK0OlSNogMI2J-24" value="" style="endArrow=classic;html=1;rounded=0;fontSize=12;startSize=8;endSize=8;curved=1;exitX=0.5;exitY=0;exitDx=0;exitDy=0;entryX=0;entryY=0;entryDx=0;entryDy=0;" edge="1" parent="1" source="j533js6PK0OlSNogMI2J-25" target="j533js6PK0OlSNogMI2J-42">
          <mxGeometry width="50" height="50" relative="1" as="geometry">
            <mxPoint x="316" y="455" as="sourcePoint" />
            <mxPoint x="406" y="340" as="targetPoint" />
          </mxGeometry>
        </mxCell>
        <mxCell id="j533js6PK0OlSNogMI2J-27" value="" style="endArrow=none;html=1;rounded=0;fontSize=12;startSize=8;endSize=8;curved=1;strokeWidth=3;opacity=30;" edge="1" parent="1" target="j533js6PK0OlSNogMI2J-25">
          <mxGeometry width="50" height="50" relative="1" as="geometry">
            <mxPoint x="156" y="240" as="sourcePoint" />
            <mxPoint x="836" y="240" as="targetPoint" />
          </mxGeometry>
        </mxCell>
        <mxCell id="j533js6PK0OlSNogMI2J-28" style="edgeStyle=none;curved=1;rounded=0;orthogonalLoop=1;jettySize=auto;html=1;exitX=0.5;exitY=0;exitDx=0;exitDy=0;fontSize=12;startSize=8;endSize=8;" edge="1" parent="1" source="j533js6PK0OlSNogMI2J-25">
          <mxGeometry relative="1" as="geometry">
            <mxPoint x="396" y="130" as="targetPoint" />
          </mxGeometry>
        </mxCell>
        <mxCell id="j533js6PK0OlSNogMI2J-25" value="" style="ellipse;whiteSpace=wrap;html=1;aspect=fixed;fillColor=#f8cecc;strokeColor=#b85450;" vertex="1" parent="1">
          <mxGeometry x="316" y="231" width="20" height="20" as="geometry" />
        </mxCell>
        <mxCell id="j533js6PK0OlSNogMI2J-30" value="" style="endArrow=none;html=1;rounded=0;fontSize=12;startSize=8;endSize=8;curved=1;strokeWidth=3;" edge="1" parent="1" target="j533js6PK0OlSNogMI2J-29">
          <mxGeometry width="50" height="50" relative="1" as="geometry">
            <mxPoint x="156" y="121.5" as="sourcePoint" />
            <mxPoint x="836" y="121.5" as="targetPoint" />
          </mxGeometry>
        </mxCell>
        <mxCell id="j533js6PK0OlSNogMI2J-31" style="edgeStyle=none;curved=1;rounded=0;orthogonalLoop=1;jettySize=auto;html=1;exitX=1;exitY=1;exitDx=0;exitDy=0;entryX=0.5;entryY=0;entryDx=0;entryDy=0;fontSize=12;startSize=8;endSize=8;" edge="1" parent="1" source="j533js6PK0OlSNogMI2J-29" target="j533js6PK0OlSNogMI2J-25">
          <mxGeometry relative="1" as="geometry" />
        </mxCell>
        <mxCell id="j533js6PK0OlSNogMI2J-29" value="" style="ellipse;whiteSpace=wrap;html=1;aspect=fixed;fillColor=#0050ef;strokeColor=#001DBC;fontColor=#ffffff;" vertex="1" parent="1">
          <mxGeometry x="215" y="112" width="20" height="20" as="geometry" />
        </mxCell>
        <mxCell id="j533js6PK0OlSNogMI2J-33" value="" style="endArrow=none;html=1;rounded=0;fontSize=12;startSize=8;endSize=8;curved=1;strokeWidth=3;" edge="1" parent="1" source="j533js6PK0OlSNogMI2J-29" target="j533js6PK0OlSNogMI2J-32">
          <mxGeometry width="50" height="50" relative="1" as="geometry">
            <mxPoint x="266" y="122" as="sourcePoint" />
            <mxPoint x="836" y="121.5" as="targetPoint" />
          </mxGeometry>
        </mxCell>
        <mxCell id="j533js6PK0OlSNogMI2J-32" value="" style="ellipse;whiteSpace=wrap;html=1;aspect=fixed;fillColor=#0050ef;strokeColor=#001DBC;fontColor=#ffffff;" vertex="1" parent="1">
          <mxGeometry x="386" y="112" width="20" height="20" as="geometry" />
        </mxCell>
        <mxCell id="j533js6PK0OlSNogMI2J-36" value="" style="endArrow=none;html=1;rounded=0;fontSize=12;startSize=8;endSize=8;curved=1;strokeWidth=3;" edge="1" parent="1" target="j533js6PK0OlSNogMI2J-35">
          <mxGeometry width="50" height="50" relative="1" as="geometry">
            <mxPoint x="156" y="360" as="sourcePoint" />
            <mxPoint x="836" y="360" as="targetPoint" />
          </mxGeometry>
        </mxCell>
        <mxCell id="j533js6PK0OlSNogMI2J-35" value="" style="ellipse;whiteSpace=wrap;html=1;aspect=fixed;fillColor=#fff2cc;strokeColor=#d6b656;" vertex="1" parent="1">
          <mxGeometry x="246" y="351" width="20" height="20" as="geometry" />
        </mxCell>
        <mxCell id="j533js6PK0OlSNogMI2J-38" value="" style="endArrow=none;html=1;rounded=0;fontSize=12;startSize=8;endSize=8;curved=1;strokeWidth=3;" edge="1" parent="1" source="j533js6PK0OlSNogMI2J-15" target="j533js6PK0OlSNogMI2J-37">
          <mxGeometry width="50" height="50" relative="1" as="geometry">
            <mxPoint x="226" y="480" as="sourcePoint" />
            <mxPoint x="836" y="479" as="targetPoint" />
          </mxGeometry>
        </mxCell>
        <mxCell id="j533js6PK0OlSNogMI2J-41" style="edgeStyle=none;curved=1;rounded=0;orthogonalLoop=1;jettySize=auto;html=1;exitX=0.5;exitY=0;exitDx=0;exitDy=0;entryX=0.5;entryY=1;entryDx=0;entryDy=0;fontSize=12;startSize=8;endSize=8;" edge="1" parent="1" source="j533js6PK0OlSNogMI2J-37" target="j533js6PK0OlSNogMI2J-39">
          <mxGeometry relative="1" as="geometry" />
        </mxCell>
        <mxCell id="j533js6PK0OlSNogMI2J-37" value="" style="ellipse;whiteSpace=wrap;html=1;aspect=fixed;fillColor=#008a00;strokeColor=#005700;fontColor=#ffffff;" vertex="1" parent="1">
          <mxGeometry x="296" y="470" width="20" height="20" as="geometry" />
        </mxCell>
        <mxCell id="j533js6PK0OlSNogMI2J-40" value="" style="endArrow=none;html=1;rounded=0;fontSize=12;startSize=8;endSize=8;curved=1;strokeWidth=3;" edge="1" parent="1" source="j533js6PK0OlSNogMI2J-35" target="j533js6PK0OlSNogMI2J-39">
          <mxGeometry width="50" height="50" relative="1" as="geometry">
            <mxPoint x="266" y="361" as="sourcePoint" />
            <mxPoint x="836" y="360" as="targetPoint" />
          </mxGeometry>
        </mxCell>
        <mxCell id="j533js6PK0OlSNogMI2J-39" value="" style="ellipse;whiteSpace=wrap;html=1;aspect=fixed;fillColor=#fff2cc;strokeColor=#d6b656;" vertex="1" parent="1">
          <mxGeometry x="336" y="351" width="20" height="20" as="geometry" />
        </mxCell>
        <mxCell id="j533js6PK0OlSNogMI2J-43" value="" style="endArrow=none;html=1;rounded=0;fontSize=12;startSize=8;endSize=8;curved=1;strokeWidth=3;" edge="1" parent="1" source="j533js6PK0OlSNogMI2J-39" target="j533js6PK0OlSNogMI2J-42">
          <mxGeometry width="50" height="50" relative="1" as="geometry">
            <mxPoint x="356" y="361" as="sourcePoint" />
            <mxPoint x="836" y="360" as="targetPoint" />
          </mxGeometry>
        </mxCell>
        <mxCell id="j533js6PK0OlSNogMI2J-42" value="" style="ellipse;whiteSpace=wrap;html=1;aspect=fixed;fillColor=#fff2cc;strokeColor=#d6b656;" vertex="1" parent="1">
          <mxGeometry x="416" y="351" width="20" height="20" as="geometry" />
        </mxCell>
        <mxCell id="j533js6PK0OlSNogMI2J-46" value="" style="endArrow=none;html=1;rounded=0;fontSize=12;startSize=8;endSize=8;curved=1;strokeWidth=3;" edge="1" parent="1" source="j533js6PK0OlSNogMI2J-42" target="j533js6PK0OlSNogMI2J-45">
          <mxGeometry width="50" height="50" relative="1" as="geometry">
            <mxPoint x="436" y="361" as="sourcePoint" />
            <mxPoint x="836" y="360" as="targetPoint" />
          </mxGeometry>
        </mxCell>
        <mxCell id="j533js6PK0OlSNogMI2J-48" style="edgeStyle=none;curved=1;rounded=0;orthogonalLoop=1;jettySize=auto;html=1;exitX=0.5;exitY=0;exitDx=0;exitDy=0;fontSize=12;startSize=8;endSize=8;" edge="1" parent="1" source="j533js6PK0OlSNogMI2J-45" target="j533js6PK0OlSNogMI2J-47">
          <mxGeometry relative="1" as="geometry" />
        </mxCell>
        <mxCell id="j533js6PK0OlSNogMI2J-45" value="" style="ellipse;whiteSpace=wrap;html=1;aspect=fixed;fillColor=#fff2cc;strokeColor=#d6b656;" vertex="1" parent="1">
          <mxGeometry x="466" y="351" width="20" height="20" as="geometry" />
        </mxCell>
        <mxCell id="j533js6PK0OlSNogMI2J-47" value="" style="ellipse;whiteSpace=wrap;html=1;aspect=fixed;fillColor=#0050ef;strokeColor=#001DBC;fontColor=#ffffff;" vertex="1" parent="1">
          <mxGeometry x="536" y="112" width="20" height="20" as="geometry" />
        </mxCell>
        <mxCell id="j533js6PK0OlSNogMI2J-50" value="" style="endArrow=none;html=1;rounded=0;fontSize=12;startSize=8;endSize=8;curved=1;strokeWidth=3;opacity=30;" edge="1" parent="1" source="j533js6PK0OlSNogMI2J-25" target="j533js6PK0OlSNogMI2J-49">
          <mxGeometry width="50" height="50" relative="1" as="geometry">
            <mxPoint x="336" y="241" as="sourcePoint" />
            <mxPoint x="836" y="240" as="targetPoint" />
          </mxGeometry>
        </mxCell>
        <mxCell id="j533js6PK0OlSNogMI2J-58" style="edgeStyle=none;curved=1;rounded=0;orthogonalLoop=1;jettySize=auto;html=1;exitX=1;exitY=0;exitDx=0;exitDy=0;fontSize=12;startSize=8;endSize=8;" edge="1" parent="1" source="j533js6PK0OlSNogMI2J-49" target="j533js6PK0OlSNogMI2J-56">
          <mxGeometry relative="1" as="geometry" />
        </mxCell>
        <mxCell id="j533js6PK0OlSNogMI2J-59" style="edgeStyle=none;curved=1;rounded=0;orthogonalLoop=1;jettySize=auto;html=1;exitX=1;exitY=1;exitDx=0;exitDy=0;fontSize=12;startSize=8;endSize=8;" edge="1" parent="1" source="j533js6PK0OlSNogMI2J-49" target="j533js6PK0OlSNogMI2J-54">
          <mxGeometry relative="1" as="geometry" />
        </mxCell>
        <mxCell id="j533js6PK0OlSNogMI2J-49" value="" style="ellipse;whiteSpace=wrap;html=1;aspect=fixed;fillColor=#f8cecc;strokeColor=#b85450;" vertex="1" parent="1">
          <mxGeometry x="628" y="231" width="20" height="20" as="geometry" />
        </mxCell>
        <mxCell id="j533js6PK0OlSNogMI2J-52" value="" style="endArrow=none;html=1;rounded=0;fontSize=12;startSize=8;endSize=8;curved=1;strokeWidth=3;" edge="1" parent="1" source="j533js6PK0OlSNogMI2J-32">
          <mxGeometry width="50" height="50" relative="1" as="geometry">
            <mxPoint x="406" y="122" as="sourcePoint" />
            <mxPoint x="636" y="122" as="targetPoint" />
          </mxGeometry>
        </mxCell>
        <mxCell id="j533js6PK0OlSNogMI2J-53" style="edgeStyle=none;curved=1;rounded=0;orthogonalLoop=1;jettySize=auto;html=1;exitX=1;exitY=0.5;exitDx=0;exitDy=0;entryX=0.5;entryY=0;entryDx=0;entryDy=0;fontSize=12;startSize=8;endSize=8;" edge="1" parent="1" source="j533js6PK0OlSNogMI2J-47" target="j533js6PK0OlSNogMI2J-49">
          <mxGeometry relative="1" as="geometry">
            <mxPoint x="627.0710678118653" y="129.07106781186553" as="sourcePoint" />
          </mxGeometry>
        </mxCell>
        <mxCell id="j533js6PK0OlSNogMI2J-55" value="" style="endArrow=none;html=1;rounded=0;fontSize=12;startSize=8;endSize=8;curved=1;strokeWidth=3;" edge="1" parent="1" source="j533js6PK0OlSNogMI2J-45" target="j533js6PK0OlSNogMI2J-54">
          <mxGeometry width="50" height="50" relative="1" as="geometry">
            <mxPoint x="486" y="361" as="sourcePoint" />
            <mxPoint x="836" y="360" as="targetPoint" />
          </mxGeometry>
        </mxCell>
        <mxCell id="j533js6PK0OlSNogMI2J-54" value="" style="ellipse;whiteSpace=wrap;html=1;aspect=fixed;fillColor=#fff2cc;strokeColor=#d6b656;" vertex="1" parent="1">
          <mxGeometry x="736" y="351" width="20" height="20" as="geometry" />
        </mxCell>
        <mxCell id="j533js6PK0OlSNogMI2J-57" value="" style="endArrow=none;html=1;rounded=0;fontSize=12;startSize=8;endSize=8;curved=1;strokeWidth=3;" edge="1" parent="1" target="j533js6PK0OlSNogMI2J-56">
          <mxGeometry width="50" height="50" relative="1" as="geometry">
            <mxPoint x="630" y="122" as="sourcePoint" />
            <mxPoint x="860" y="121.5" as="targetPoint" />
          </mxGeometry>
        </mxCell>
        <mxCell id="j533js6PK0OlSNogMI2J-56" value="" style="ellipse;whiteSpace=wrap;html=1;aspect=fixed;fillColor=#0050ef;strokeColor=#001DBC;fontColor=#ffffff;" vertex="1" parent="1">
          <mxGeometry x="698" y="112" width="20" height="20" as="geometry" />
        </mxCell>
        <mxCell id="j533js6PK0OlSNogMI2J-61" value="tag: cloud_r3.9.0_20231208" style="whiteSpace=wrap;html=1;shape=mxgraph.basic.roundRectCallout;dx=31.2;dy=9;size=6.6;boundedLbl=1;" vertex="1" parent="1">
          <mxGeometry x="206" y="80" width="160" height="32" as="geometry" />
        </mxCell>
        <mxCell id="j533js6PK0OlSNogMI2J-63" value="tag: hotfix-cloud-r3.9.0-20231218" style="whiteSpace=wrap;html=1;shape=mxgraph.basic.roundRectCallout;dx=8.4;dy=11;size=6.6;boundedLbl=1;" vertex="1" parent="1">
          <mxGeometry x="336" y="190" width="140" height="41" as="geometry" />
        </mxCell>
        <mxCell id="j533js6PK0OlSNogMI2J-65" value="feature1" style="whiteSpace=wrap;html=1;shape=mxgraph.basic.roundRectCallout;dx=26.4;dy=7;size=6.6;boundedLbl=1;" vertex="1" parent="1">
          <mxGeometry x="206" y="438" width="80" height="32" as="geometry" />
        </mxCell>
        <mxCell id="j533js6PK0OlSNogMI2J-66" value="tag: cloud_r3.9.1_20231230" style="whiteSpace=wrap;html=1;shape=mxgraph.basic.roundRectCallout;dx=146.87;dy=10;size=6.6;boundedLbl=1;" vertex="1" parent="1">
          <mxGeometry x="406" y="82" width="160" height="30" as="geometry" />
        </mxCell>
        <mxCell id="j533js6PK0OlSNogMI2J-67" value="" style="endArrow=none;dashed=1;html=1;dashPattern=1 3;strokeWidth=2;rounded=0;fontSize=12;startSize=8;endSize=8;curved=1;" edge="1" parent="1">
          <mxGeometry width="50" height="50" relative="1" as="geometry">
            <mxPoint x="568" y="540" as="sourcePoint" />
            <mxPoint x="568" y="40" as="targetPoint" />
          </mxGeometry>
        </mxCell>
        <mxCell id="j533js6PK0OlSNogMI2J-68" value="bugfix" style="whiteSpace=wrap;html=1;shape=mxgraph.basic.roundRectCallout;dx=26.4;dy=7;size=6.6;boundedLbl=1;" vertex="1" parent="1">
          <mxGeometry x="296" y="438" width="80" height="32" as="geometry" />
        </mxCell>
        <mxCell id="j533js6PK0OlSNogMI2J-69" value="tag: hotfix-cloud-r3.9.1-20240108" style="whiteSpace=wrap;html=1;shape=mxgraph.basic.roundRectCallout;dx=8.4;dy=11;size=6.6;boundedLbl=1;" vertex="1" parent="1">
          <mxGeometry x="670" y="190" width="140" height="41" as="geometry" />
        </mxCell>
        <mxCell id="j533js6PK0OlSNogMI2J-70" value="(当前)公有云3.9.1周期" style="text;html=1;align=center;verticalAlign=middle;resizable=0;points=[];autosize=1;strokeColor=none;fillColor=none;fontSize=16;" vertex="1" parent="1">
          <mxGeometry x="296" y="500" width="180" height="30" as="geometry" />
        </mxCell>
        <mxCell id="j533js6PK0OlSNogMI2J-128" value="release3.7.1" style="text;html=1;align=center;verticalAlign=middle;resizable=0;points=[];autosize=1;strokeColor=none;fillColor=none;fontSize=16;" vertex="1" parent="1">
          <mxGeometry x="83" y="876" width="110" height="30" as="geometry" />
        </mxCell>
        <mxCell id="j533js6PK0OlSNogMI2J-130" value="release_3.8.0" style="text;html=1;align=center;verticalAlign=middle;resizable=0;points=[];autosize=1;strokeColor=none;fillColor=none;fontSize=16;" vertex="1" parent="1">
          <mxGeometry x="75" y="996" width="120" height="30" as="geometry" />
        </mxCell>
        <mxCell id="j533js6PK0OlSNogMI2J-131" value="" style="endArrow=none;html=1;rounded=0;fontSize=12;startSize=8;endSize=8;curved=1;strokeWidth=3;" edge="1" parent="1" source="j533js6PK0OlSNogMI2J-138">
          <mxGeometry width="50" height="50" relative="1" as="geometry">
            <mxPoint x="318" y="1129" as="sourcePoint" />
            <mxPoint x="768" y="1130" as="targetPoint" />
          </mxGeometry>
        </mxCell>
        <mxCell id="j533js6PK0OlSNogMI2J-132" value="feature分支&lt;br&gt;bugfix分支" style="text;html=1;align=center;verticalAlign=middle;resizable=0;points=[];autosize=1;strokeColor=none;fillColor=none;fontSize=16;" vertex="1" parent="1">
          <mxGeometry x="87" y="1105" width="110" height="50" as="geometry" />
        </mxCell>
        <mxCell id="j533js6PK0OlSNogMI2J-133" value="" style="endArrow=none;dashed=1;html=1;dashPattern=1 3;strokeWidth=2;rounded=0;fontSize=12;startSize=8;endSize=8;curved=1;" edge="1" parent="1">
          <mxGeometry width="50" height="50" relative="1" as="geometry">
            <mxPoint x="358" y="1199" as="sourcePoint" />
            <mxPoint x="358" y="690" as="targetPoint" />
          </mxGeometry>
        </mxCell>
        <mxCell id="j533js6PK0OlSNogMI2J-136" value="补丁分支" style="text;html=1;align=center;verticalAlign=middle;resizable=0;points=[];autosize=1;strokeColor=none;fillColor=none;fontSize=16;" vertex="1" parent="1">
          <mxGeometry x="107" y="753" width="90" height="30" as="geometry" />
        </mxCell>
        <mxCell id="j533js6PK0OlSNogMI2J-137" value="" style="endArrow=none;html=1;rounded=0;fontSize=12;startSize=8;endSize=8;curved=1;strokeWidth=3;" edge="1" parent="1" target="j533js6PK0OlSNogMI2J-138">
          <mxGeometry width="50" height="50" relative="1" as="geometry">
            <mxPoint x="186" y="1130" as="sourcePoint" />
            <mxPoint x="998" y="1129" as="targetPoint" />
          </mxGeometry>
        </mxCell>
        <mxCell id="j533js6PK0OlSNogMI2J-140" value="" style="endArrow=none;html=1;rounded=0;fontSize=12;startSize=8;endSize=8;curved=1;strokeWidth=3;" edge="1" parent="1" target="j533js6PK0OlSNogMI2J-142" source="j533js6PK0OlSNogMI2J-181">
          <mxGeometry width="50" height="50" relative="1" as="geometry">
            <mxPoint x="188" y="890" as="sourcePoint" />
            <mxPoint x="998" y="890" as="targetPoint" />
          </mxGeometry>
        </mxCell>
        <mxCell id="j533js6PK0OlSNogMI2J-142" value="" style="ellipse;whiteSpace=wrap;html=1;aspect=fixed;fillColor=#ffe6cc;strokeColor=#d79b00;" vertex="1" parent="1">
          <mxGeometry x="448" y="881" width="20" height="20" as="geometry" />
        </mxCell>
        <mxCell id="j533js6PK0OlSNogMI2J-143" value="" style="endArrow=none;html=1;rounded=0;fontSize=12;startSize=8;endSize=8;curved=1;strokeWidth=3;opacity=30;" edge="1" parent="1" target="j533js6PK0OlSNogMI2J-145">
          <mxGeometry width="50" height="50" relative="1" as="geometry">
            <mxPoint x="188" y="770" as="sourcePoint" />
            <mxPoint x="998" y="771.5" as="targetPoint" />
          </mxGeometry>
        </mxCell>
        <mxCell id="j533js6PK0OlSNogMI2J-144" style="edgeStyle=none;curved=1;rounded=0;orthogonalLoop=1;jettySize=auto;html=1;exitX=1;exitY=1;exitDx=0;exitDy=0;entryX=0.5;entryY=0;entryDx=0;entryDy=0;fontSize=12;startSize=8;endSize=8;" edge="1" parent="1" source="j533js6PK0OlSNogMI2J-145" target="j533js6PK0OlSNogMI2J-142">
          <mxGeometry relative="1" as="geometry" />
        </mxCell>
        <mxCell id="j533js6PK0OlSNogMI2J-145" value="" style="ellipse;whiteSpace=wrap;html=1;aspect=fixed;fillColor=#f8cecc;strokeColor=#b85450;" vertex="1" parent="1">
          <mxGeometry x="408" y="762" width="20" height="20" as="geometry" />
        </mxCell>
        <mxCell id="j533js6PK0OlSNogMI2J-146" value="" style="endArrow=none;html=1;rounded=0;fontSize=12;startSize=8;endSize=8;curved=1;strokeWidth=3;opacity=30;" edge="1" parent="1" source="j533js6PK0OlSNogMI2J-145">
          <mxGeometry width="50" height="50" relative="1" as="geometry">
            <mxPoint x="428" y="772" as="sourcePoint" />
            <mxPoint x="568" y="772" as="targetPoint" />
          </mxGeometry>
        </mxCell>
        <mxCell id="j533js6PK0OlSNogMI2J-148" value="" style="endArrow=none;html=1;rounded=0;fontSize=12;startSize=8;endSize=8;curved=1;strokeWidth=3;" edge="1" parent="1" target="j533js6PK0OlSNogMI2J-149">
          <mxGeometry width="50" height="50" relative="1" as="geometry">
            <mxPoint x="188" y="1010" as="sourcePoint" />
            <mxPoint x="998" y="1010" as="targetPoint" />
          </mxGeometry>
        </mxCell>
        <mxCell id="j533js6PK0OlSNogMI2J-149" value="" style="ellipse;whiteSpace=wrap;html=1;aspect=fixed;fillColor=#fff2cc;strokeColor=#d6b656;" vertex="1" parent="1">
          <mxGeometry x="372" y="1001" width="20" height="20" as="geometry" />
        </mxCell>
        <mxCell id="j533js6PK0OlSNogMI2J-150" value="" style="endArrow=none;html=1;rounded=0;fontSize=12;startSize=8;endSize=8;curved=1;strokeWidth=2;" edge="1" parent="1" source="j533js6PK0OlSNogMI2J-138" target="j533js6PK0OlSNogMI2J-152">
          <mxGeometry width="50" height="50" relative="1" as="geometry">
            <mxPoint x="388" y="1130" as="sourcePoint" />
            <mxPoint x="998" y="1129" as="targetPoint" />
          </mxGeometry>
        </mxCell>
        <mxCell id="j533js6PK0OlSNogMI2J-151" style="edgeStyle=none;curved=1;rounded=0;orthogonalLoop=1;jettySize=auto;html=1;exitX=0.5;exitY=0;exitDx=0;exitDy=0;entryX=0.5;entryY=1;entryDx=0;entryDy=0;fontSize=12;startSize=8;endSize=8;" edge="1" parent="1" source="j533js6PK0OlSNogMI2J-152" target="j533js6PK0OlSNogMI2J-154">
          <mxGeometry relative="1" as="geometry" />
        </mxCell>
        <mxCell id="j533js6PK0OlSNogMI2J-152" value="" style="ellipse;whiteSpace=wrap;html=1;aspect=fixed;fillColor=#008a00;strokeColor=#005700;fontColor=#ffffff;" vertex="1" parent="1">
          <mxGeometry x="458" y="1120" width="20" height="20" as="geometry" />
        </mxCell>
        <mxCell id="j533js6PK0OlSNogMI2J-153" value="" style="endArrow=none;html=1;rounded=0;fontSize=12;startSize=8;endSize=8;curved=1;strokeWidth=3;" edge="1" parent="1" source="j533js6PK0OlSNogMI2J-149" target="j533js6PK0OlSNogMI2J-154">
          <mxGeometry width="50" height="50" relative="1" as="geometry">
            <mxPoint x="428" y="1011" as="sourcePoint" />
            <mxPoint x="998" y="1010" as="targetPoint" />
          </mxGeometry>
        </mxCell>
        <mxCell id="j533js6PK0OlSNogMI2J-154" value="" style="ellipse;whiteSpace=wrap;html=1;aspect=fixed;fillColor=#fff2cc;strokeColor=#d6b656;" vertex="1" parent="1">
          <mxGeometry x="498" y="1001" width="20" height="20" as="geometry" />
        </mxCell>
        <mxCell id="j533js6PK0OlSNogMI2J-155" value="" style="endArrow=none;html=1;rounded=0;fontSize=12;startSize=8;endSize=8;curved=1;strokeWidth=3;" edge="1" parent="1" source="j533js6PK0OlSNogMI2J-154">
          <mxGeometry width="50" height="50" relative="1" as="geometry">
            <mxPoint x="518" y="1011" as="sourcePoint" />
            <mxPoint x="598" y="1011" as="targetPoint" />
          </mxGeometry>
        </mxCell>
        <mxCell id="j533js6PK0OlSNogMI2J-157" value="" style="endArrow=none;html=1;rounded=0;fontSize=12;startSize=8;endSize=8;curved=1;strokeWidth=2;" edge="1" parent="1" target="j533js6PK0OlSNogMI2J-159">
          <mxGeometry width="50" height="50" relative="1" as="geometry">
            <mxPoint x="598" y="1011" as="sourcePoint" />
            <mxPoint x="998" y="1010" as="targetPoint" />
          </mxGeometry>
        </mxCell>
        <mxCell id="j533js6PK0OlSNogMI2J-159" value="" style="ellipse;whiteSpace=wrap;html=1;aspect=fixed;fillColor=#fff2cc;strokeColor=#d6b656;" vertex="1" parent="1">
          <mxGeometry x="628" y="1001" width="20" height="20" as="geometry" />
        </mxCell>
        <mxCell id="j533js6PK0OlSNogMI2J-161" value="" style="endArrow=none;html=1;rounded=0;fontSize=12;startSize=8;endSize=8;curved=1;strokeWidth=3;" edge="1" parent="1" source="j533js6PK0OlSNogMI2J-142">
          <mxGeometry width="50" height="50" relative="1" as="geometry">
            <mxPoint x="498" y="891" as="sourcePoint" />
            <mxPoint x="768" y="891" as="targetPoint" />
          </mxGeometry>
        </mxCell>
        <mxCell id="j533js6PK0OlSNogMI2J-165" value="" style="endArrow=none;html=1;rounded=0;fontSize=12;startSize=8;endSize=8;curved=1;strokeWidth=3;opacity=30;" edge="1" parent="1">
          <mxGeometry width="50" height="50" relative="1" as="geometry">
            <mxPoint x="568" y="772" as="sourcePoint" />
            <mxPoint x="772" y="772" as="targetPoint" />
          </mxGeometry>
        </mxCell>
        <mxCell id="j533js6PK0OlSNogMI2J-168" value="" style="endArrow=none;html=1;rounded=0;fontSize=12;startSize=8;endSize=8;curved=1;strokeWidth=3;" edge="1" parent="1" source="j533js6PK0OlSNogMI2J-197">
          <mxGeometry width="50" height="50" relative="1" as="geometry">
            <mxPoint x="648" y="1011" as="sourcePoint" />
            <mxPoint x="768" y="1011" as="targetPoint" />
          </mxGeometry>
        </mxCell>
        <mxCell id="j533js6PK0OlSNogMI2J-172" value="tag:&amp;nbsp;r3.7.1-patch-20231008" style="whiteSpace=wrap;html=1;shape=mxgraph.basic.roundRectCallout;dx=65.4;dy=8;size=6.6;boundedLbl=1;" vertex="1" parent="1">
          <mxGeometry x="368" y="730" width="160" height="32" as="geometry" />
        </mxCell>
        <mxCell id="j533js6PK0OlSNogMI2J-176" value="" style="endArrow=none;dashed=1;html=1;dashPattern=1 3;strokeWidth=2;rounded=0;fontSize=12;startSize=8;endSize=8;curved=1;" edge="1" parent="1">
          <mxGeometry width="50" height="50" relative="1" as="geometry">
            <mxPoint x="730" y="1190" as="sourcePoint" />
            <mxPoint x="730" y="690" as="targetPoint" />
          </mxGeometry>
        </mxCell>
        <mxCell id="j533js6PK0OlSNogMI2J-177" value="feature1" style="whiteSpace=wrap;html=1;shape=mxgraph.basic.roundRectCallout;dx=26.4;dy=7;size=6.6;boundedLbl=1;" vertex="1" parent="1">
          <mxGeometry x="458" y="1088" width="80" height="32" as="geometry" />
        </mxCell>
        <mxCell id="j533js6PK0OlSNogMI2J-179" value="私有云3.7.1周期" style="text;html=1;align=center;verticalAlign=middle;resizable=0;points=[];autosize=1;strokeColor=none;fillColor=none;fontSize=16;" vertex="1" parent="1">
          <mxGeometry x="1240" y="2220" width="140" height="30" as="geometry" />
        </mxCell>
        <mxCell id="j533js6PK0OlSNogMI2J-180" value="(当前)私有云3.8.0周期" style="text;html=1;align=center;verticalAlign=middle;resizable=0;points=[];autosize=1;strokeColor=none;fillColor=none;fontSize=16;" vertex="1" parent="1">
          <mxGeometry x="436" y="1155" width="180" height="30" as="geometry" />
        </mxCell>
        <mxCell id="j533js6PK0OlSNogMI2J-182" value="" style="endArrow=none;html=1;rounded=0;fontSize=12;startSize=8;endSize=8;curved=1;strokeWidth=3;" edge="1" parent="1" target="j533js6PK0OlSNogMI2J-181">
          <mxGeometry width="50" height="50" relative="1" as="geometry">
            <mxPoint x="188" y="890" as="sourcePoint" />
            <mxPoint x="478" y="891" as="targetPoint" />
          </mxGeometry>
        </mxCell>
        <mxCell id="j533js6PK0OlSNogMI2J-183" style="edgeStyle=none;curved=1;rounded=0;orthogonalLoop=1;jettySize=auto;html=1;exitX=1;exitY=0;exitDx=0;exitDy=0;entryX=0;entryY=1;entryDx=0;entryDy=0;fontSize=12;startSize=8;endSize=8;" edge="1" parent="1" source="j533js6PK0OlSNogMI2J-181" target="j533js6PK0OlSNogMI2J-145">
          <mxGeometry relative="1" as="geometry" />
        </mxCell>
        <mxCell id="j533js6PK0OlSNogMI2J-187" style="edgeStyle=none;curved=1;rounded=0;orthogonalLoop=1;jettySize=auto;html=1;exitX=1;exitY=1;exitDx=0;exitDy=0;fontSize=12;startSize=8;endSize=8;" edge="1" parent="1" source="j533js6PK0OlSNogMI2J-181">
          <mxGeometry relative="1" as="geometry">
            <mxPoint x="378" y="1000" as="targetPoint" />
          </mxGeometry>
        </mxCell>
        <mxCell id="j533js6PK0OlSNogMI2J-181" value="" style="ellipse;whiteSpace=wrap;html=1;aspect=fixed;fillColor=#ffe6cc;strokeColor=#d79b00;" vertex="1" parent="1">
          <mxGeometry x="328" y="881" width="20" height="20" as="geometry" />
        </mxCell>
        <mxCell id="j533js6PK0OlSNogMI2J-184" value="tag:&amp;nbsp;r3.7.1" style="whiteSpace=wrap;html=1;shape=mxgraph.basic.roundRectCallout;dx=48.8;dy=5;size=6.6;boundedLbl=1;" vertex="1" parent="1">
          <mxGeometry x="298" y="849" width="55" height="32" as="geometry" />
        </mxCell>
        <mxCell id="j533js6PK0OlSNogMI2J-190" value="" style="endArrow=none;html=1;rounded=0;fontSize=12;startSize=8;endSize=8;curved=1;strokeWidth=3;" edge="1" parent="1" source="j533js6PK0OlSNogMI2J-152" target="j533js6PK0OlSNogMI2J-138">
          <mxGeometry width="50" height="50" relative="1" as="geometry">
            <mxPoint x="478" y="1130" as="sourcePoint" />
            <mxPoint x="958" y="1130" as="targetPoint" />
          </mxGeometry>
        </mxCell>
        <mxCell id="j533js6PK0OlSNogMI2J-195" style="edgeStyle=none;curved=1;rounded=0;orthogonalLoop=1;jettySize=auto;html=1;exitX=1;exitY=0;exitDx=0;exitDy=0;entryX=0.5;entryY=1;entryDx=0;entryDy=0;fontSize=12;startSize=8;endSize=8;" edge="1" parent="1" source="j533js6PK0OlSNogMI2J-138" target="j533js6PK0OlSNogMI2J-159">
          <mxGeometry relative="1" as="geometry" />
        </mxCell>
        <mxCell id="j533js6PK0OlSNogMI2J-138" value="" style="ellipse;whiteSpace=wrap;html=1;aspect=fixed;fillColor=#008a00;strokeColor=#005700;fontColor=#ffffff;" vertex="1" parent="1">
          <mxGeometry x="568" y="1119" width="20" height="20" as="geometry" />
        </mxCell>
        <mxCell id="j533js6PK0OlSNogMI2J-191" style="edgeStyle=none;curved=1;rounded=0;orthogonalLoop=1;jettySize=auto;html=1;exitX=1;exitY=1;exitDx=0;exitDy=0;fontSize=12;startSize=8;endSize=8;entryX=0.5;entryY=0;entryDx=0;entryDy=0;" edge="1" parent="1" source="j533js6PK0OlSNogMI2J-145" target="j533js6PK0OlSNogMI2J-138">
          <mxGeometry relative="1" as="geometry">
            <mxPoint x="668" y="1130" as="targetPoint" />
          </mxGeometry>
        </mxCell>
        <mxCell id="j533js6PK0OlSNogMI2J-196" value="bugfix" style="whiteSpace=wrap;html=1;shape=mxgraph.basic.roundRectCallout;dx=26.4;dy=7;size=6.6;boundedLbl=1;" vertex="1" parent="1">
          <mxGeometry x="578" y="1087" width="80" height="32" as="geometry" />
        </mxCell>
        <mxCell id="j533js6PK0OlSNogMI2J-198" value="" style="endArrow=none;html=1;rounded=0;fontSize=12;startSize=8;endSize=8;curved=1;strokeWidth=3;" edge="1" parent="1" source="j533js6PK0OlSNogMI2J-159" target="j533js6PK0OlSNogMI2J-197">
          <mxGeometry width="50" height="50" relative="1" as="geometry">
            <mxPoint x="648" y="1011" as="sourcePoint" />
            <mxPoint x="922" y="1011" as="targetPoint" />
          </mxGeometry>
        </mxCell>
        <mxCell id="j533js6PK0OlSNogMI2J-197" value="" style="ellipse;whiteSpace=wrap;html=1;aspect=fixed;fillColor=#fff2cc;strokeColor=#d6b656;" vertex="1" parent="1">
          <mxGeometry x="698" y="1001" width="20" height="20" as="geometry" />
        </mxCell>
        <mxCell id="j533js6PK0OlSNogMI2J-199" value="tag: r3.8.0" style="whiteSpace=wrap;html=1;shape=mxgraph.basic.roundRectCallout;dx=48.8;dy=5;size=6.6;boundedLbl=1;" vertex="1" parent="1">
          <mxGeometry x="658" y="969" width="70" height="32" as="geometry" />
        </mxCell>
        <mxCell id="j533js6PK0OlSNogMI2J-200" value="" style="endArrow=none;dashed=1;html=1;dashPattern=1 3;strokeWidth=2;rounded=0;fontSize=12;startSize=8;endSize=8;curved=1;" edge="1" parent="1">
          <mxGeometry width="50" height="50" relative="1" as="geometry">
            <mxPoint x="228" y="1193" as="sourcePoint" />
            <mxPoint x="228" y="690" as="targetPoint" />
          </mxGeometry>
        </mxCell>
        <mxCell id="j533js6PK0OlSNogMI2J-203" value="&lt;font style=&quot;font-size: 24px;&quot;&gt;公&lt;br&gt;有&lt;br&gt;云&lt;/font&gt;" style="text;html=1;align=center;verticalAlign=middle;resizable=0;points=[];autosize=1;strokeColor=none;fillColor=none;fontSize=16;" vertex="1" parent="1">
          <mxGeometry x="18" y="251" width="42" height="98" as="geometry" />
        </mxCell>
        <mxCell id="j533js6PK0OlSNogMI2J-204" value="&lt;span style=&quot;font-size: 24px;&quot;&gt;私&lt;br&gt;有&lt;br&gt;云&lt;/span&gt;" style="text;html=1;align=center;verticalAlign=middle;resizable=0;points=[];autosize=1;strokeColor=none;fillColor=none;fontSize=16;" vertex="1" parent="1">
          <mxGeometry x="24" y="895" width="42" height="98" as="geometry" />
        </mxCell>
        <mxCell id="j533js6PK0OlSNogMI2J-206" value="私有云3.7.1周期" style="text;html=1;align=center;verticalAlign=middle;resizable=0;points=[];autosize=1;strokeColor=none;fillColor=none;fontSize=16;" vertex="1" parent="1">
          <mxGeometry x="226" y="1152" width="134" height="31" as="geometry" />
        </mxCell>
      </root>
    </mxGraphModel>
  </diagram>
</mxfile>
